<svg width="90" height="90" viewBox="0 0 90 90" fill="none" xmlns="http://www.w3.org/2000/svg">
<rect width="90" height="90" fill="#E5E5E5"/>
<rect width="90" height="90" fill="white"/>
<rect x="6" y="15" width="2" height="42" fill="black"/>
<rect x="27" y="15" width="2" height="42" fill="black"/>
<rect x="6" y="56" width="23" height="2" rx="1" fill="black"/>
<rect x="6" y="14" width="23" height="2" rx="1" fill="black"/>
<rect width="13" height="1" rx="0.5" transform="matrix(1 0 0 -1 11 38)" fill="black"/>
<rect width="13" height="1" rx="0.5" transform="matrix(1 0 0 -1 11 36)" fill="black"/>
<rect width="13" height="1" rx="0.5" transform="matrix(1 0 0 -1 11 20)" fill="black"/>
<rect width="13" height="1" rx="0.5" transform="matrix(1 0 0 -1 11 22)" fill="black"/>
<rect width="13" height="1" rx="0.5" transform="matrix(1 0 0 -1 11 40)" fill="black"/>
<rect width="13" height="1" rx="0.5" transform="matrix(1 0 0 -1 11 42)" fill="black"/>
<circle cx="23.5" cy="24.5" r="1.5" fill="black"/>
<rect x="43" y="14" width="2" height="27" rx="1" fill="black"/>
<rect x="77" y="14" width="2" height="27" rx="1" fill="black"/>
<rect x="44" y="14" width="34" height="2" fill="black"/>
<rect x="44" y="39" width="34" height="2" fill="black"/>
<rect x="56" y="41" width="1" height="10" fill="black"/>
<rect x="66" y="41" width="1" height="10" fill="black"/>
<rect x="52" y="51" width="19" height="2" rx="1" fill="black"/>
<rect x="42" y="56" width="29" height="1" rx="0.5" fill="black"/>
<rect x="42" y="68" width="29" height="1" rx="0.5" fill="black"/>
<circle cx="46" cy="59" r="1" fill="black"/>
<circle cx="49" cy="59" r="1" fill="black"/>
<circle cx="52" cy="59" r="1" fill="black"/>
<circle cx="55" cy="59" r="1" fill="black"/>
<circle cx="58" cy="59" r="1" fill="black"/>
<circle cx="61" cy="59" r="1" fill="black"/>
<circle cx="64" cy="59" r="1" fill="black"/>
<circle cx="67" cy="59" r="1" fill="black"/>
<circle cx="44" cy="62" r="1" fill="black"/>
<circle cx="47" cy="62" r="1" fill="black"/>
<circle cx="47" cy="65" r="1" fill="black"/>
<circle cx="44" cy="65" r="1" fill="black"/>
<circle cx="50" cy="62" r="1" fill="black"/>
<circle cx="53" cy="62" r="1" fill="black"/>
<circle cx="56" cy="62" r="1" fill="black"/>
<circle cx="59" cy="62" r="1" fill="black"/>
<circle cx="62" cy="62" r="1" fill="black"/>
<circle cx="65" cy="62" r="1" fill="black"/>
<circle cx="68" cy="62" r="1" fill="black"/>
<circle cx="64" cy="64" r="1" fill="black"/>
<circle cx="66" cy="66" r="1" fill="black"/>
<circle cx="62" cy="66" r="1" fill="black"/>
<circle cx="64" cy="66" r="1" fill="black"/>
<ellipse cx="55" cy="65.5" rx="5" ry="1.5" fill="black"/>
<rect x="42" y="56" width="1" height="13" rx="0.5" fill="black"/>
<rect x="70" y="56" width="1" height="13" rx="0.5" fill="black"/>
<ellipse cx="79" cy="62" rx="3" ry="5" fill="black"/>
<ellipse cx="79" cy="59.5" rx="1" ry="1.5" fill="white"/>
</svg>
